<svg aria-hidden="true" style="position: absolute; width: 0; height: 0; overflow: hidden;" version="1.1" xmlns="http://www.w3.org/2000/svg" xmlns:xlink="http://www.w3.org/1999/xlink">
<defs>
<symbol id="icon-bed" viewBox="0 0 32 32">
<path stroke-linejoin="round" stroke-linecap="round" stroke-miterlimit="4" stroke-width="2.24" d="M6 14.992v-6.496c0-0.672 0.256-1.296 0.72-1.776 0.48-0.464 1.104-0.72 1.776-0.72h14.992c0.672 0 1.296 0.256 1.776 0.72 0.464 0.48 0.72 1.104 0.736 1.776v6.496h-20zM2.992 26v-7.008c0-1.056 0.432-2.080 1.168-2.832 0.752-0.736 1.776-1.168 2.832-1.168h18c1.056 0 2.080 0.432 2.832 1.168 0.736 0.752 1.168 1.776 1.168 2.832v7.008"></path>
<path stroke-linejoin="round" stroke-linecap="round" stroke-miterlimit="4" stroke-width="2.24" d="M2.992 26v-0.512c0-0.4 0.16-0.768 0.448-1.056 0.272-0.288 0.656-0.432 1.056-0.432h22.992c0.4 0 0.784 0.144 1.056 0.432 0.288 0.288 0.448 0.656 0.448 1.056v0.512M6.992 14.992v-0.992c0-0.544 0.208-1.040 0.592-1.424 0.368-0.368 0.88-0.576 1.408-0.576h5.008c0.528 0 1.024 0.208 1.408 0.576 0.368 0.384 0.576 0.88 0.592 1.424v0.992M16 14c0-0.544 0.208-1.040 0.576-1.424 0.384-0.368 0.88-0.576 1.424-0.576h4.992c0.528 0 1.040 0.208 1.408 0.576 0.384 0.384 0.592 0.88 0.592 1.424v0.992"></path>
</symbol>
<symbol id="icon-calendar" viewBox="0 0 32 32">
<path stroke-linejoin="round" stroke-linecap="butt" stroke-miterlimit="4" stroke-width="2.9091" d="M27.307 1.455c1.784 0 3.239 1.435 3.239 3.219v22.633c0 1.784-1.455 3.239-3.239 3.239h-22.633c-1.784 0-3.219-1.455-3.219-3.239v-22.633c0-1.784 1.435-3.219 3.219-3.219h22.633z"></path>
</symbol>
<symbol id="icon-camperTwoWindows" viewBox="0 0 46 32">
<path d="M2.606 1.794h12.4c0.114 0 0.206-0.046 0.286-0.114l1.189-1.166c0.343-0.331 0.811-0.514 1.303-0.514h18.811c0.88 0 1.691 0.423 2.171 1.131l2.263 3.303c0.32 0.469 0.343 1.063 0.080 1.566-0.274 0.491-0.8 0.8-1.383 0.8h-9.691v0.96h4.96c1.314 0 2.503 0.754 3.017 1.943l2.914 6.651 2.549 0.994c1.36 0.526 2.24 1.794 2.24 3.223v6.16c0 0.914-0.777 1.669-1.714 1.669h-2.96c-0.343 2.034-2.171 3.6-4.354 3.6s-4-1.566-4.354-3.6h-16.194c-0.354 2.034-2.171 3.6-4.354 3.6s-4-1.566-4.354-3.6h-5.92c-0.834 0-1.509-0.674-1.509-1.486v-22.571c0-1.406 1.166-2.549 2.606-2.549zM36.686 30.583c1.634 0 2.971-1.291 2.971-2.891s-1.337-2.891-2.971-2.891c-1.634 0-2.971 1.291-2.971 2.891s1.337 2.891 2.971 2.891zM30.034 26.994h2.297c0.011-0.046 0.023-0.080 0.023-0.114 0.011-0.023 0.011-0.046 0.011-0.069 0.011-0.057 0.034-0.103 0.046-0.16 0-0.011 0-0.023 0-0.034 0.023-0.069 0.046-0.137 0.057-0.194 0.011-0.023 0.023-0.034 0.023-0.057 0.011-0.046 0.034-0.091 0.046-0.137 0.011-0.023 0.023-0.046 0.034-0.069 0.011-0.034 0.023-0.080 0.046-0.114 0.011-0.023 0.023-0.057 0.034-0.080 0.011-0.034 0.023-0.069 0.046-0.103 0.011-0.023 0.023-0.057 0.034-0.080 0.023-0.034 0.034-0.069 0.057-0.103 0.011-0.023 0.023-0.046 0.046-0.069 0.011-0.034 0.034-0.069 0.057-0.103 0.011-0.023 0.023-0.046 0.046-0.069 0.023-0.034 0.034-0.069 0.057-0.103 0.023-0.023 0.034-0.046 0.046-0.069 0.023-0.034 0.057-0.069 0.080-0.103 0.011-0.023 0.023-0.034 0.046-0.057 0.034-0.046 0.069-0.091 0.103-0.137 0.011 0 0.011-0.011 0.023-0.011 0.034-0.057 0.080-0.103 0.126-0.149 0.011-0.023 0.034-0.034 0.046-0.046 0.034-0.034 0.057-0.069 0.091-0.103 0.023-0.011 0.046-0.034 0.057-0.057 0.034-0.023 0.057-0.046 0.091-0.080 0.023-0.011 0.046-0.034 0.057-0.057 0.034-0.023 0.069-0.046 0.091-0.069l0.069-0.057c0.034-0.023 0.057-0.046 0.091-0.069 0.023-0.023 0.046-0.034 0.069-0.046 0.034-0.023 0.069-0.046 0.103-0.069 0.023-0.023 0.046-0.034 0.069-0.046 0.034-0.023 0.069-0.046 0.103-0.069 0.023-0.011 0.046-0.034 0.069-0.046 0.034-0.023 0.080-0.046 0.114-0.057 0.023-0.011 0.034-0.023 0.057-0.034 0.057-0.034 0.114-0.057 0.171-0.091 0 0 0.011 0 0.011 0 0.057-0.034 0.126-0.057 0.183-0.080 0.023-0.011 0.046-0.023 0.069-0.034 0.034-0.011 0.080-0.023 0.126-0.046 0.023-0.011 0.046-0.011 0.080-0.023s0.069-0.034 0.114-0.046c0.023 0 0.057-0.011 0.080-0.023 0.046-0.011 0.080-0.023 0.114-0.034 0.034 0 0.057-0.011 0.091-0.011 0.034-0.011 0.080-0.023 0.114-0.034 0.034 0 0.057-0.011 0.091-0.011 0.034-0.011 0.080-0.023 0.126-0.023 0.023-0.011 0.057-0.011 0.080-0.011 0.046-0.011 0.091-0.011 0.126-0.023 0.034 0 0.057 0 0.091-0.011 0.046 0 0.091 0 0.137-0.011 0.023 0 0.046 0 0.069 0 0.069 0 0.149 0 0.217 0s0.149 0 0.217 0c0.023 0 0.046 0 0.069 0 0.046 0.011 0.103 0.011 0.149 0.011 0.023 0.011 0.057 0.011 0.080 0.011 0.046 0.011 0.080 0.011 0.126 0.023 0.034 0 0.057 0 0.091 0.011 0.034 0 0.080 0.011 0.114 0.023 0.034 0 0.057 0.011 0.091 0.011 0.034 0.011 0.080 0.023 0.114 0.034 0.034 0 0.057 0.011 0.091 0.011 0.034 0.011 0.080 0.023 0.114 0.034 0.023 0.011 0.057 0.023 0.080 0.023 0.046 0.011 0.080 0.034 0.126 0.046 0.023 0.011 0.046 0.011 0.069 0.023 0.046 0.023 0.091 0.034 0.137 0.046 0.011 0.011 0.034 0.023 0.057 0.034 0.057 0.023 0.126 0.046 0.183 0.080 0.011 0 0.011 0 0.011 0 0.057 0.034 0.114 0.057 0.171 0.091 0.023 0.011 0.034 0.023 0.057 0.034 0.046 0.011 0.080 0.034 0.114 0.057 0.023 0.011 0.046 0.034 0.069 0.046 0.034 0.023 0.069 0.046 0.103 0.069 0.023 0.011 0.057 0.023 0.080 0.046s0.057 0.046 0.091 0.069c0.023 0.011 0.046 0.023 0.069 0.046 0.034 0.023 0.057 0.046 0.091 0.069l0.069 0.057c0.034 0.023 0.057 0.046 0.091 0.069 0.023 0.023 0.034 0.046 0.057 0.057 0.034 0.034 0.057 0.057 0.091 0.080 0.023 0.023 0.034 0.046 0.057 0.057 0.034 0.034 0.069 0.069 0.091 0.103 0.023 0.011 0.034 0.023 0.046 0.046 0.046 0.046 0.091 0.091 0.137 0.149 0 0 0.011 0.011 0.011 0.011 0.034 0.046 0.069 0.091 0.114 0.137 0.011 0.023 0.023 0.034 0.034 0.057 0.023 0.034 0.057 0.069 0.080 0.103 0.011 0.023 0.023 0.046 0.046 0.069 0.023 0.034 0.046 0.069 0.069 0.103 0.011 0.023 0.023 0.046 0.034 0.069 0.023 0.034 0.046 0.069 0.069 0.103 0.011 0.023 0.023 0.046 0.034 0.069 0.023 0.034 0.034 0.069 0.057 0.103 0.011 0.023 0.023 0.057 0.034 0.080 0.023 0.034 0.034 0.069 0.057 0.103 0.011 0.023 0.023 0.057 0.023 0.080 0.023 0.034 0.034 0.080 0.057 0.114 0 0.023 0.011 0.046 0.023 0.069 0.011 0.046 0.034 0.091 0.046 0.137 0.011 0.023 0.011 0.034 0.023 0.057 0.023 0.057 0.034 0.126 0.057 0.194 0 0.011 0 0.023 0 0.034 0.023 0.057 0.034 0.103 0.046 0.16 0 0.023 0.011 0.046 0.011 0.069 0.011 0.034 0.011 0.069 0.023 0.114h2.96c0.149 0 0.263-0.126 0.263-0.263v-2.949h-1.12v-1.406h1.12v-1.806c0-0.857-0.514-1.611-1.326-1.92l-2.697-1.051h-10.206v9.394zM30.034 16.194h9.246l-2.594-5.943c-0.286-0.663-0.949-1.086-1.691-1.086h-4.96v7.029zM11.783 30.583c1.634 0 2.971-1.291 2.971-2.891s-1.337-2.891-2.971-2.891c-0.046 0-0.103 0-0.149 0-1.371 0.069-2.491 1.040-2.754 2.309-0.011 0.046-0.023 0.091-0.034 0.149-0.011 0.091-0.023 0.183-0.023 0.286-0.011 0.046-0.011 0.103-0.011 0.149 0 1.6 1.337 2.891 2.971 2.891zM1.44 22.377h1.12v1.406h-1.12v3.131c0 0.046 0.034 0.080 0.069 0.080h5.92c0.011-0.046 0.011-0.080 0.023-0.114 0-0.023 0.011-0.046 0.011-0.069 0.011-0.057 0.023-0.103 0.046-0.16 0-0.011 0-0.023 0-0.034 0.023-0.069 0.046-0.126 0.057-0.194 0.011-0.023 0.023-0.046 0.023-0.057 0.011-0.046 0.034-0.091 0.046-0.137 0.011-0.023 0.023-0.046 0.034-0.069 0.011-0.034 0.023-0.080 0.046-0.114 0.011-0.023 0.023-0.057 0.034-0.080 0.011-0.034 0.023-0.069 0.046-0.103 0.011-0.023 0.023-0.057 0.034-0.080 0.023-0.034 0.034-0.069 0.057-0.103 0.011-0.023 0.023-0.046 0.046-0.069 0.011-0.034 0.034-0.069 0.057-0.103 0.011-0.023 0.023-0.046 0.046-0.069 0.011-0.034 0.034-0.069 0.057-0.103 0.023-0.023 0.034-0.046 0.046-0.069 0.023-0.034 0.057-0.069 0.080-0.103 0.011-0.023 0.023-0.034 0.046-0.057 0.034-0.046 0.069-0.091 0.103-0.126 0-0.011 0.011-0.023 0.011-0.023 0.046-0.057 0.091-0.103 0.137-0.149 0.011-0.023 0.034-0.034 0.046-0.046 0.034-0.034 0.057-0.069 0.091-0.103 0.023-0.011 0.034-0.034 0.057-0.057 0.034-0.023 0.057-0.046 0.091-0.080 0.023-0.011 0.046-0.034 0.057-0.057 0.034-0.023 0.069-0.046 0.091-0.069s0.046-0.034 0.069-0.057c0.034-0.023 0.057-0.046 0.091-0.069 0.023-0.023 0.046-0.034 0.069-0.046 0.034-0.023 0.069-0.046 0.103-0.069 0.023-0.023 0.046-0.034 0.069-0.046 0.034-0.023 0.069-0.046 0.103-0.069 0.023-0.011 0.046-0.034 0.069-0.046 0.034-0.023 0.069-0.046 0.114-0.057 0.023-0.011 0.034-0.023 0.057-0.034 0.057-0.034 0.114-0.057 0.171-0.091 0 0 0.011 0 0.011 0 0.057-0.034 0.126-0.057 0.183-0.080 0.023-0.011 0.046-0.023 0.069-0.034 0.034-0.011 0.080-0.023 0.126-0.046 0.023-0.011 0.046-0.011 0.080-0.023s0.069-0.034 0.114-0.046c0.023 0 0.057-0.011 0.080-0.023 0.046-0.011 0.080-0.023 0.114-0.034 0.034 0 0.057-0.011 0.091-0.011 0.034-0.011 0.080-0.023 0.114-0.034 0.034 0 0.057-0.011 0.091-0.011 0.034-0.011 0.080-0.023 0.114-0.023 0.034-0.011 0.057-0.011 0.091-0.011 0.046-0.011 0.080-0.011 0.126-0.023 0.034 0 0.057 0 0.080-0.011 0.057 0 0.103 0 0.149-0.011 0.023 0 0.046 0 0.069 0 0.069 0 0.149 0 0.217 0s0.149 0 0.217 0c0.023 0 0.046 0 0.069 0 0.046 0.011 0.091 0.011 0.149 0.011 0.023 0.011 0.046 0.011 0.080 0.011 0.046 0.011 0.080 0.011 0.126 0.023 0.034 0 0.057 0 0.091 0.011 0.034 0 0.080 0.011 0.114 0.023 0.034 0 0.057 0.011 0.091 0.011 0.034 0.011 0.080 0.023 0.114 0.034 0.034 0 0.057 0.011 0.091 0.011 0.034 0.011 0.080 0.023 0.114 0.034 0.023 0.011 0.057 0.023 0.080 0.023 0.046 0.011 0.080 0.034 0.126 0.046 0.023 0.011 0.046 0.011 0.069 0.023 0.046 0.023 0.091 0.034 0.137 0.046 0.011 0.011 0.034 0.023 0.057 0.034 0.057 0.023 0.126 0.046 0.183 0.080 0.011 0 0.011 0 0.011 0 0.057 0.034 0.114 0.057 0.171 0.091 0.023 0.011 0.034 0.023 0.057 0.034 0.046 0.011 0.080 0.034 0.114 0.057 0.023 0.011 0.046 0.034 0.069 0.046 0.034 0.023 0.069 0.046 0.103 0.069 0.023 0.011 0.046 0.023 0.080 0.046 0.023 0.023 0.057 0.046 0.091 0.069 0.023 0.011 0.046 0.023 0.069 0.046 0.034 0.023 0.057 0.046 0.091 0.069 0.023 0.023 0.046 0.034 0.069 0.057s0.057 0.046 0.091 0.069c0.011 0.023 0.034 0.046 0.057 0.057 0.034 0.034 0.057 0.057 0.091 0.080 0.023 0.023 0.034 0.046 0.057 0.057 0.034 0.034 0.069 0.069 0.091 0.103 0.023 0.011 0.034 0.023 0.046 0.046 0.046 0.046 0.091 0.091 0.137 0.149 0 0 0.011 0.011 0.011 0.011 0.034 0.046 0.069 0.091 0.103 0.137 0.023 0.023 0.034 0.034 0.046 0.057 0.023 0.034 0.057 0.069 0.080 0.103 0.011 0.023 0.023 0.046 0.046 0.069 0.023 0.034 0.046 0.069 0.057 0.103 0.023 0.023 0.034 0.046 0.046 0.069 0.023 0.034 0.046 0.069 0.057 0.103 0.023 0.023 0.034 0.046 0.046 0.069 0.023 0.034 0.034 0.069 0.057 0.103 0.011 0.023 0.023 0.057 0.034 0.080 0.023 0.034 0.034 0.069 0.046 0.103 0.011 0.023 0.023 0.057 0.034 0.080 0.023 0.034 0.034 0.080 0.057 0.114 0 0.023 0.011 0.046 0.023 0.069 0.011 0.046 0.034 0.091 0.046 0.137 0.011 0.023 0.011 0.034 0.023 0.057 0.011 0.057 0.034 0.126 0.057 0.194 0 0.011 0 0.023 0 0.034 0.023 0.046 0.034 0.103 0.046 0.16 0 0.023 0.011 0.046 0.011 0.069 0.011 0.034 0.011 0.069 0.023 0.114h12.446v-20.903c0-0.389 0.331-0.697 0.72-0.697h10.423c0.023 0 0.069 0 0.103-0.069 0.034-0.057 0.011-0.103 0-0.114l-2.251-3.303c-0.229-0.32-0.583-0.503-0.983-0.503h-18.811c-0.114 0-0.206 0.034-0.286 0.103l-1.189 1.166c-0.343 0.343-0.811 0.526-1.303 0.526h-12.4c-0.651 0-1.166 0.514-1.166 1.143v18.034z"></path>
<path d="M20.114 7.189h4.549c0.926 0 1.68 0.731 1.68 1.634v15.040c0 0.389-0.331 0.709-0.72 0.709h-6.457c-0.4 0-0.72-0.32-0.72-0.709v-15.040c0-0.903 0.743-1.634 1.669-1.634zM19.886 23.166h5.006v-8.274h-5.006v8.274zM19.886 13.486h5.006v-4.663c0-0.126-0.103-0.229-0.229-0.229h-4.549c-0.126 0-0.229 0.103-0.229 0.229v4.663zM5.531 7.189h8.811c1.017 0 1.851 0.811 1.851 1.806v4.103c0 0.994-0.834 1.806-1.851 1.806h-8.811c-1.017 0-1.851-0.811-1.851-1.806v-4.103c0-0.994 0.834-1.806 1.851-1.806zM5.12 13.097c0 0.217 0.183 0.389 0.411 0.389h8.811c0.229 0 0.411-0.171 0.411-0.389v-4.103c0-0.217-0.183-0.4-0.411-0.4h-8.811c-0.229 0-0.411 0.183-0.411 0.4v4.103z"></path>
</symbol>
<symbol id="icon-contacts" viewBox="0 0 44 32">
<path d="M11.449 28.041h-6.519c-0.403 0-0.593-0.19-0.806-0.403-0.19-0.19-0.379-0.593-0.19-0.972 1.185-3.366 4.148-5.357 7.514-5.357 4.148 0 7.49-3.556 7.49-7.704s-3.342-8.083-7.49-8.083c-4.148 0-7.514 3.556-7.514 7.893 0 1.967 0.782 3.959 1.967 5.333-2.56 1.375-4.527 3.556-5.713 6.518-0.403 1.399-0.213 3.176 0.782 4.551s2.37 2.181 3.958 2.181h6.519c1.185 0 1.967-0.806 1.967-1.991s-0.782-1.967-1.967-1.967zM7.893 13.416c0-2.181 1.564-3.745 3.556-3.745 1.967 0 3.556 1.778 3.556 3.745 0 2.181-1.588 3.745-3.556 3.745-1.991 0-3.556-1.778-3.556-3.745z"></path>
<path d="M43.235 24.083c-1.375-3.745-4.148-6.518-7.301-8.083 1.778-1.588 2.773-3.959 2.773-6.732 0-5.12-3.959-9.268-8.699-9.268s-8.699 4.148-8.699 9.268c0 2.584 0.996 4.954 2.773 6.732-3.153 1.564-5.926 4.338-7.301 8.083-0.996 1.778-0.593 3.769 0.379 5.333 0.996 1.588 2.773 2.37 4.551 2.37h16.403c1.778 0 3.556-0.972 4.527-2.37 1.185-1.564 1.399-3.556 0.593-5.333zM25.078 9.482c0-2.963 2.157-5.333 4.741-5.333 2.56 0 4.741 2.37 4.741 5.333s-2.181 5.333-4.741 5.333c-2.584 0-4.741-2.584-4.741-5.333zM39.301 27.259c-0.213 0.19-0.593 0.782-1.185 0.782h-16.403c-0.782 0-1.185-0.593-1.185-0.782-0.19-0.213-0.593-0.996-0.19-1.778 1.564-4.148 5.523-6.921 9.671-6.921s8.107 2.773 9.671 6.921c0.213 0.782-0.19 1.564-0.379 1.778z"></path>
</symbol>
<symbol id="icon-fillHeart" viewBox="0 0 36 32">
<path fill="#e44848" style="fill: var(--color1, #e44848)" d="M31.857 4.302c-0.795-0.795-1.746-1.434-2.79-1.87-1.044-0.421-2.151-0.655-3.273-0.655-1.138 0-2.244 0.234-3.289 0.655-1.044 0.436-1.979 1.075-2.774 1.87l-1.652 1.652-1.652-1.652c-1.621-1.605-3.787-2.509-6.063-2.509s-4.457 0.904-6.063 2.509c-1.621 1.605-2.525 3.787-2.525 6.063s0.904 4.457 2.525 6.063l13.778 13.778 13.778-13.778c0.795-0.795 1.418-1.746 1.855-2.79s0.655-2.151 0.655-3.273c0-1.138-0.218-2.244-0.655-3.289s-1.060-1.979-1.855-2.774z"></path>
<path fill="none" stroke="#e44848" style="stroke: var(--color1, #e44848)" stroke-linejoin="round" stroke-linecap="butt" stroke-miterlimit="4" stroke-width="3.5847" d="M29.067 2.431c-1.044-0.421-2.151-0.655-3.273-0.655-1.138 0-2.244 0.234-3.289 0.655-1.044 0.436-1.979 1.075-2.774 1.87l-1.652 1.652-1.652-1.652c-1.621-1.605-3.787-2.509-6.063-2.509s-4.457 0.904-6.063 2.509c-1.621 1.605-2.525 3.787-2.525 6.063s0.904 4.457 2.525 6.063l13.778 13.778 13.778-13.778c0.795-0.795 1.418-1.746 1.855-2.79s0.655-2.151 0.655-3.273c0-1.138-0.218-2.244-0.655-3.289s-1.060-1.979-1.855-2.774c-0.795-0.795-1.746-1.434-2.79-1.87z"></path>
</symbol>
<symbol id="icon-heart" viewBox="0 0 36 32">
<path stroke-linejoin="round" stroke-linecap="butt" stroke-miterlimit="4" stroke-width="3.5847" d="M29.067 2.431c-1.044-0.421-2.151-0.655-3.273-0.655-1.138 0-2.244 0.234-3.289 0.655-1.044 0.436-1.979 1.075-2.774 1.87l-1.652 1.652-1.652-1.652c-1.621-1.605-3.787-2.509-6.063-2.509s-4.457 0.904-6.063 2.509c-1.621 1.605-2.525 3.787-2.525 6.063s0.904 4.457 2.525 6.063l13.778 13.778 13.778-13.778c0.795-0.795 1.418-1.746 1.855-2.79s0.655-2.151 0.655-3.273c0-1.138-0.218-2.244-0.655-3.289s-1.060-1.979-1.855-2.774c-0.795-0.795-1.746-1.434-2.79-1.87z"></path>
</symbol>
<symbol id="icon-KnifeFork" viewBox="0 0 26 32">
<path stroke-linejoin="round" stroke-linecap="round" stroke-miterlimit="4" stroke-width="2.9091" d="M24.068 20.849h-8.068c-0.039-5.954 0.291-11.985 8.068-19.394v29.091h-1.61v-4.848M6.303 3.064v27.481M1.455 3.064v4.848c0 1.28 0.504 2.521 1.416 3.433 0.912 0.892 2.133 1.416 3.433 1.416 1.28 0 2.502-0.524 3.413-1.416 0.912-0.912 1.435-2.153 1.435-3.433v-4.848"></path>
</symbol>
<symbol id="icon-onewindow" viewBox="0 0 46 32">
<path d="M2.606 1.794h12.4c0.114 0 0.206-0.046 0.286-0.114l1.189-1.166c0.343-0.331 0.811-0.514 1.303-0.514h18.811c0.88 0 1.691 0.423 2.171 1.131l2.263 3.303c0.32 0.469 0.343 1.063 0.080 1.566-0.274 0.491-0.8 0.8-1.383 0.8h-9.691v0.96h4.96c1.314 0 2.503 0.754 3.017 1.943l2.914 6.651 2.549 0.994c1.36 0.526 2.24 1.794 2.24 3.223v6.16c0 0.914-0.777 1.669-1.714 1.669h-2.96c-0.343 2.034-2.171 3.6-4.354 3.6s-4-1.566-4.354-3.6h-16.194c-0.354 2.034-2.171 3.6-4.354 3.6s-4-1.566-4.354-3.6h-5.92c-0.834 0-1.509-0.674-1.509-1.486v-22.571c0-1.406 1.166-2.549 2.606-2.549zM36.686 30.583c1.634 0 2.971-1.291 2.971-2.891s-1.337-2.891-2.971-2.891c-1.634 0-2.971 1.291-2.971 2.891s1.337 2.891 2.971 2.891zM30.034 26.994h2.297c0.011-0.046 0.023-0.080 0.023-0.114 0.011-0.023 0.011-0.046 0.011-0.069 0.011-0.057 0.034-0.103 0.046-0.16 0-0.011 0-0.023 0-0.034 0.023-0.069 0.046-0.137 0.057-0.194 0.011-0.023 0.023-0.034 0.023-0.057 0.011-0.046 0.034-0.091 0.046-0.137 0.011-0.023 0.023-0.046 0.034-0.069 0.011-0.034 0.023-0.080 0.046-0.114 0.011-0.023 0.023-0.057 0.034-0.080 0.011-0.034 0.023-0.069 0.046-0.103 0.011-0.023 0.023-0.057 0.034-0.080 0.023-0.034 0.034-0.069 0.057-0.103 0.011-0.023 0.023-0.046 0.046-0.069 0.011-0.034 0.034-0.069 0.057-0.103 0.011-0.023 0.023-0.046 0.046-0.069 0.023-0.034 0.034-0.069 0.057-0.103 0.023-0.023 0.034-0.046 0.046-0.069 0.023-0.034 0.057-0.069 0.080-0.103 0.011-0.023 0.023-0.034 0.046-0.057 0.034-0.046 0.069-0.091 0.103-0.137 0.011 0 0.011-0.011 0.023-0.011 0.034-0.057 0.080-0.103 0.126-0.149 0.011-0.023 0.034-0.034 0.046-0.046 0.034-0.034 0.057-0.069 0.091-0.103 0.023-0.011 0.046-0.034 0.057-0.057 0.034-0.023 0.057-0.046 0.091-0.080 0.023-0.011 0.046-0.034 0.057-0.057 0.034-0.023 0.069-0.046 0.091-0.069l0.069-0.057c0.034-0.023 0.057-0.046 0.091-0.069 0.023-0.023 0.046-0.034 0.069-0.046 0.034-0.023 0.069-0.046 0.103-0.069 0.023-0.023 0.046-0.034 0.069-0.046 0.034-0.023 0.069-0.046 0.103-0.069 0.023-0.011 0.046-0.034 0.069-0.046 0.034-0.023 0.080-0.046 0.114-0.057 0.023-0.011 0.034-0.023 0.057-0.034 0.057-0.034 0.114-0.057 0.171-0.091 0 0 0.011 0 0.011 0 0.057-0.034 0.126-0.057 0.183-0.080 0.023-0.011 0.046-0.023 0.069-0.034 0.034-0.011 0.080-0.023 0.126-0.046 0.023-0.011 0.046-0.011 0.080-0.023s0.069-0.034 0.114-0.046c0.023 0 0.057-0.011 0.080-0.023 0.046-0.011 0.080-0.023 0.114-0.034 0.034 0 0.057-0.011 0.091-0.011 0.034-0.011 0.080-0.023 0.114-0.034 0.034 0 0.057-0.011 0.091-0.011 0.034-0.011 0.080-0.023 0.126-0.023 0.023-0.011 0.057-0.011 0.080-0.011 0.046-0.011 0.091-0.011 0.126-0.023 0.034 0 0.057 0 0.091-0.011 0.046 0 0.091 0 0.137-0.011 0.023 0 0.046 0 0.069 0 0.069 0 0.149 0 0.217 0s0.149 0 0.217 0c0.023 0 0.046 0 0.069 0 0.046 0.011 0.103 0.011 0.149 0.011 0.023 0.011 0.057 0.011 0.080 0.011 0.046 0.011 0.080 0.011 0.126 0.023 0.034 0 0.057 0 0.091 0.011 0.034 0 0.080 0.011 0.114 0.023 0.034 0 0.057 0.011 0.091 0.011 0.034 0.011 0.080 0.023 0.114 0.034 0.034 0 0.057 0.011 0.091 0.011 0.034 0.011 0.080 0.023 0.114 0.034 0.023 0.011 0.057 0.023 0.080 0.023 0.046 0.011 0.080 0.034 0.126 0.046 0.023 0.011 0.046 0.011 0.069 0.023 0.046 0.023 0.091 0.034 0.137 0.046 0.011 0.011 0.034 0.023 0.057 0.034 0.057 0.023 0.126 0.046 0.183 0.080 0.011 0 0.011 0 0.011 0 0.057 0.034 0.114 0.057 0.171 0.091 0.023 0.011 0.034 0.023 0.057 0.034 0.046 0.011 0.080 0.034 0.114 0.057 0.023 0.011 0.046 0.034 0.069 0.046 0.034 0.023 0.069 0.046 0.103 0.069 0.023 0.011 0.057 0.023 0.080 0.046s0.057 0.046 0.091 0.069c0.023 0.011 0.046 0.023 0.069 0.046 0.034 0.023 0.057 0.046 0.091 0.069l0.069 0.057c0.034 0.023 0.057 0.046 0.091 0.069 0.023 0.023 0.034 0.046 0.057 0.057 0.034 0.034 0.057 0.057 0.091 0.080 0.023 0.023 0.034 0.046 0.057 0.057 0.034 0.034 0.069 0.069 0.091 0.103 0.023 0.011 0.034 0.023 0.046 0.046 0.046 0.046 0.091 0.091 0.137 0.149 0 0 0.011 0.011 0.011 0.011 0.034 0.046 0.069 0.091 0.114 0.137 0.011 0.023 0.023 0.034 0.034 0.057 0.023 0.034 0.057 0.069 0.080 0.103 0.011 0.023 0.023 0.046 0.046 0.069 0.023 0.034 0.046 0.069 0.069 0.103 0.011 0.023 0.023 0.046 0.034 0.069 0.023 0.034 0.046 0.069 0.069 0.103 0.011 0.023 0.023 0.046 0.034 0.069 0.023 0.034 0.034 0.069 0.057 0.103 0.011 0.023 0.023 0.057 0.034 0.080 0.023 0.034 0.034 0.069 0.057 0.103 0.011 0.023 0.023 0.057 0.023 0.080 0.023 0.034 0.034 0.080 0.057 0.114 0 0.023 0.011 0.046 0.023 0.069 0.011 0.046 0.034 0.091 0.046 0.137 0.011 0.023 0.011 0.034 0.023 0.057 0.023 0.057 0.034 0.126 0.057 0.194 0 0.011 0 0.023 0 0.034 0.023 0.057 0.034 0.103 0.046 0.16 0 0.023 0.011 0.046 0.011 0.069 0.011 0.034 0.011 0.069 0.023 0.114h2.96c0.149 0 0.263-0.126 0.263-0.263v-2.949h-1.12v-1.406h1.12v-1.806c0-0.857-0.514-1.611-1.326-1.92l-2.697-1.051h-10.206v9.394zM30.034 16.194h9.246l-2.594-5.943c-0.286-0.663-0.949-1.086-1.691-1.086h-4.96v7.029zM11.783 30.583c1.634 0 2.971-1.291 2.971-2.891s-1.337-2.891-2.971-2.891c-0.046 0-0.103 0-0.149 0-1.371 0.069-2.491 1.040-2.754 2.309-0.011 0.046-0.023 0.091-0.034 0.149-0.011 0.091-0.023 0.183-0.023 0.286-0.011 0.046-0.011 0.103-0.011 0.149 0 1.6 1.337 2.891 2.971 2.891zM1.44 22.377h1.12v1.406h-1.12v3.131c0 0.046 0.034 0.080 0.069 0.080h5.92c0.011-0.046 0.011-0.080 0.023-0.114 0-0.023 0.011-0.046 0.011-0.069 0.011-0.057 0.023-0.103 0.046-0.16 0-0.011 0-0.023 0-0.034 0.023-0.069 0.046-0.126 0.057-0.194 0.011-0.023 0.023-0.046 0.023-0.057 0.011-0.046 0.034-0.091 0.046-0.137 0.011-0.023 0.023-0.046 0.034-0.069 0.011-0.034 0.023-0.080 0.046-0.114 0.011-0.023 0.023-0.057 0.034-0.080 0.011-0.034 0.023-0.069 0.046-0.103 0.011-0.023 0.023-0.057 0.034-0.080 0.023-0.034 0.034-0.069 0.057-0.103 0.011-0.023 0.023-0.046 0.046-0.069 0.011-0.034 0.034-0.069 0.057-0.103 0.011-0.023 0.023-0.046 0.046-0.069 0.011-0.034 0.034-0.069 0.057-0.103 0.023-0.023 0.034-0.046 0.046-0.069 0.023-0.034 0.057-0.069 0.080-0.103 0.011-0.023 0.023-0.034 0.046-0.057 0.034-0.046 0.069-0.091 0.103-0.126 0-0.011 0.011-0.023 0.011-0.023 0.046-0.057 0.091-0.103 0.137-0.149 0.011-0.023 0.034-0.034 0.046-0.046 0.034-0.034 0.057-0.069 0.091-0.103 0.023-0.011 0.034-0.034 0.057-0.057 0.034-0.023 0.057-0.046 0.091-0.080 0.023-0.011 0.046-0.034 0.057-0.057 0.034-0.023 0.069-0.046 0.091-0.069s0.046-0.034 0.069-0.057c0.034-0.023 0.057-0.046 0.091-0.069 0.023-0.023 0.046-0.034 0.069-0.046 0.034-0.023 0.069-0.046 0.103-0.069 0.023-0.023 0.046-0.034 0.069-0.046 0.034-0.023 0.069-0.046 0.103-0.069 0.023-0.011 0.046-0.034 0.069-0.046 0.034-0.023 0.069-0.046 0.114-0.057 0.023-0.011 0.034-0.023 0.057-0.034 0.057-0.034 0.114-0.057 0.171-0.091 0 0 0.011 0 0.011 0 0.057-0.034 0.126-0.057 0.183-0.080 0.023-0.011 0.046-0.023 0.069-0.034 0.034-0.011 0.080-0.023 0.126-0.046 0.023-0.011 0.046-0.011 0.080-0.023s0.069-0.034 0.114-0.046c0.023 0 0.057-0.011 0.080-0.023 0.046-0.011 0.080-0.023 0.114-0.034 0.034 0 0.057-0.011 0.091-0.011 0.034-0.011 0.080-0.023 0.114-0.034 0.034 0 0.057-0.011 0.091-0.011 0.034-0.011 0.080-0.023 0.114-0.023 0.034-0.011 0.057-0.011 0.091-0.011 0.046-0.011 0.080-0.011 0.126-0.023 0.034 0 0.057 0 0.080-0.011 0.057 0 0.103 0 0.149-0.011 0.023 0 0.046 0 0.069 0 0.069 0 0.149 0 0.217 0s0.149 0 0.217 0c0.023 0 0.046 0 0.069 0 0.046 0.011 0.091 0.011 0.149 0.011 0.023 0.011 0.046 0.011 0.080 0.011 0.046 0.011 0.080 0.011 0.126 0.023 0.034 0 0.057 0 0.091 0.011 0.034 0 0.080 0.011 0.114 0.023 0.034 0 0.057 0.011 0.091 0.011 0.034 0.011 0.080 0.023 0.114 0.034 0.034 0 0.057 0.011 0.091 0.011 0.034 0.011 0.080 0.023 0.114 0.034 0.023 0.011 0.057 0.023 0.080 0.023 0.046 0.011 0.080 0.034 0.126 0.046 0.023 0.011 0.046 0.011 0.069 0.023 0.046 0.023 0.091 0.034 0.137 0.046 0.011 0.011 0.034 0.023 0.057 0.034 0.057 0.023 0.126 0.046 0.183 0.080 0.011 0 0.011 0 0.011 0 0.057 0.034 0.114 0.057 0.171 0.091 0.023 0.011 0.034 0.023 0.057 0.034 0.046 0.011 0.080 0.034 0.114 0.057 0.023 0.011 0.046 0.034 0.069 0.046 0.034 0.023 0.069 0.046 0.103 0.069 0.023 0.011 0.046 0.023 0.080 0.046 0.023 0.023 0.057 0.046 0.091 0.069 0.023 0.011 0.046 0.023 0.069 0.046 0.034 0.023 0.057 0.046 0.091 0.069 0.023 0.023 0.046 0.034 0.069 0.057s0.057 0.046 0.091 0.069c0.011 0.023 0.034 0.046 0.057 0.057 0.034 0.034 0.057 0.057 0.091 0.080 0.023 0.023 0.034 0.046 0.057 0.057 0.034 0.034 0.069 0.069 0.091 0.103 0.023 0.011 0.034 0.023 0.046 0.046 0.046 0.046 0.091 0.091 0.137 0.149 0 0 0.011 0.011 0.011 0.011 0.034 0.046 0.069 0.091 0.103 0.137 0.023 0.023 0.034 0.034 0.046 0.057 0.023 0.034 0.057 0.069 0.080 0.103 0.011 0.023 0.023 0.046 0.046 0.069 0.023 0.034 0.046 0.069 0.057 0.103 0.023 0.023 0.034 0.046 0.046 0.069 0.023 0.034 0.046 0.069 0.057 0.103 0.023 0.023 0.034 0.046 0.046 0.069 0.023 0.034 0.034 0.069 0.057 0.103 0.011 0.023 0.023 0.057 0.034 0.080 0.023 0.034 0.034 0.069 0.046 0.103 0.011 0.023 0.023 0.057 0.034 0.080 0.023 0.034 0.034 0.080 0.057 0.114 0 0.023 0.011 0.046 0.023 0.069 0.011 0.046 0.034 0.091 0.046 0.137 0.011 0.023 0.011 0.034 0.023 0.057 0.011 0.057 0.034 0.126 0.057 0.194 0 0.011 0 0.023 0 0.034 0.023 0.046 0.034 0.103 0.046 0.16 0 0.023 0.011 0.046 0.011 0.069 0.011 0.034 0.011 0.069 0.023 0.114h12.446v-20.903c0-0.389 0.331-0.697 0.72-0.697h10.423c0.023 0 0.069 0 0.103-0.069 0.034-0.057 0.011-0.103 0-0.114l-2.251-3.303c-0.229-0.32-0.583-0.503-0.983-0.503h-18.811c-0.114 0-0.206 0.034-0.286 0.103l-1.189 1.166c-0.343 0.343-0.811 0.526-1.303 0.526h-12.4c-0.651 0-1.166 0.514-1.166 1.143v18.034z"></path>
<path d="M20.114 7.189h4.549c0.926 0 1.68 0.731 1.68 1.634v15.040c0 0.389-0.331 0.709-0.72 0.709h-6.457c-0.4 0-0.72-0.32-0.72-0.709v-15.040c0-0.903 0.743-1.634 1.669-1.634zM19.886 23.166h5.006v-8.274h-5.006v8.274zM19.886 13.486h5.006v-4.663c0-0.126-0.103-0.229-0.229-0.229h-4.549c-0.126 0-0.229 0.103-0.229 0.229v4.663z"></path>
</symbol>
<symbol id="icon-oneWindowSide" viewBox="0 0 46 32">
<path d="M2.606 1.794h12.4c0.114 0 0.206-0.046 0.286-0.114l1.189-1.166c0.343-0.331 0.811-0.514 1.303-0.514h18.811c0.88 0 1.691 0.423 2.171 1.131l2.263 3.303c0.32 0.469 0.343 1.063 0.080 1.566-0.274 0.491-0.8 0.8-1.383 0.8h-9.691v0.96h4.96c1.314 0 2.503 0.754 3.017 1.943l2.914 6.651 2.549 0.994c1.36 0.526 2.24 1.794 2.24 3.223v6.16c0 0.914-0.777 1.669-1.714 1.669h-2.96c-0.343 2.034-2.171 3.6-4.354 3.6s-4-1.566-4.354-3.6h-16.194c-0.354 2.034-2.171 3.6-4.354 3.6s-4-1.566-4.354-3.6h-5.92c-0.834 0-1.509-0.674-1.509-1.486v-22.571c0-1.406 1.166-2.549 2.606-2.549zM36.686 30.583c1.634 0 2.971-1.291 2.971-2.891s-1.337-2.891-2.971-2.891c-1.634 0-2.971 1.291-2.971 2.891s1.337 2.891 2.971 2.891zM30.034 26.994h2.297c0.011-0.046 0.023-0.080 0.023-0.114 0.011-0.023 0.011-0.046 0.011-0.069 0.011-0.057 0.034-0.103 0.046-0.16 0-0.011 0-0.023 0-0.034 0.023-0.069 0.046-0.137 0.057-0.194 0.011-0.023 0.023-0.034 0.023-0.057 0.011-0.046 0.034-0.091 0.046-0.137 0.011-0.023 0.023-0.046 0.034-0.069 0.011-0.034 0.023-0.080 0.046-0.114 0.011-0.023 0.023-0.057 0.034-0.080 0.011-0.034 0.023-0.069 0.046-0.103 0.011-0.023 0.023-0.057 0.034-0.080 0.023-0.034 0.034-0.069 0.057-0.103 0.011-0.023 0.023-0.046 0.046-0.069 0.011-0.034 0.034-0.069 0.057-0.103 0.011-0.023 0.023-0.046 0.046-0.069 0.023-0.034 0.034-0.069 0.057-0.103 0.023-0.023 0.034-0.046 0.046-0.069 0.023-0.034 0.057-0.069 0.080-0.103 0.011-0.023 0.023-0.034 0.046-0.057 0.034-0.046 0.069-0.091 0.103-0.137 0.011 0 0.011-0.011 0.023-0.011 0.034-0.057 0.080-0.103 0.126-0.149 0.011-0.023 0.034-0.034 0.046-0.046 0.034-0.034 0.057-0.069 0.091-0.103 0.023-0.011 0.046-0.034 0.057-0.057 0.034-0.023 0.057-0.046 0.091-0.080 0.023-0.011 0.046-0.034 0.057-0.057 0.034-0.023 0.069-0.046 0.091-0.069l0.069-0.057c0.034-0.023 0.057-0.046 0.091-0.069 0.023-0.023 0.046-0.034 0.069-0.046 0.034-0.023 0.069-0.046 0.103-0.069 0.023-0.023 0.046-0.034 0.069-0.046 0.034-0.023 0.069-0.046 0.103-0.069 0.023-0.011 0.046-0.034 0.069-0.046 0.034-0.023 0.080-0.046 0.114-0.057 0.023-0.011 0.034-0.023 0.057-0.034 0.057-0.034 0.114-0.057 0.171-0.091 0 0 0.011 0 0.011 0 0.057-0.034 0.126-0.057 0.183-0.080 0.023-0.011 0.046-0.023 0.069-0.034 0.034-0.011 0.080-0.023 0.126-0.046 0.023-0.011 0.046-0.011 0.080-0.023s0.069-0.034 0.114-0.046c0.023 0 0.057-0.011 0.080-0.023 0.046-0.011 0.080-0.023 0.114-0.034 0.034 0 0.057-0.011 0.091-0.011 0.034-0.011 0.080-0.023 0.114-0.034 0.034 0 0.057-0.011 0.091-0.011 0.034-0.011 0.080-0.023 0.126-0.023 0.023-0.011 0.057-0.011 0.080-0.011 0.046-0.011 0.091-0.011 0.126-0.023 0.034 0 0.057 0 0.091-0.011 0.046 0 0.091 0 0.137-0.011 0.023 0 0.046 0 0.069 0 0.069 0 0.149 0 0.217 0s0.149 0 0.217 0c0.023 0 0.046 0 0.069 0 0.046 0.011 0.103 0.011 0.149 0.011 0.023 0.011 0.057 0.011 0.080 0.011 0.046 0.011 0.080 0.011 0.126 0.023 0.034 0 0.057 0 0.091 0.011 0.034 0 0.080 0.011 0.114 0.023 0.034 0 0.057 0.011 0.091 0.011 0.034 0.011 0.080 0.023 0.114 0.034 0.034 0 0.057 0.011 0.091 0.011 0.034 0.011 0.080 0.023 0.114 0.034 0.023 0.011 0.057 0.023 0.080 0.023 0.046 0.011 0.080 0.034 0.126 0.046 0.023 0.011 0.046 0.011 0.069 0.023 0.046 0.023 0.091 0.034 0.137 0.046 0.011 0.011 0.034 0.023 0.057 0.034 0.057 0.023 0.126 0.046 0.183 0.080 0.011 0 0.011 0 0.011 0 0.057 0.034 0.114 0.057 0.171 0.091 0.023 0.011 0.034 0.023 0.057 0.034 0.046 0.011 0.080 0.034 0.114 0.057 0.023 0.011 0.046 0.034 0.069 0.046 0.034 0.023 0.069 0.046 0.103 0.069 0.023 0.011 0.057 0.023 0.080 0.046s0.057 0.046 0.091 0.069c0.023 0.011 0.046 0.023 0.069 0.046 0.034 0.023 0.057 0.046 0.091 0.069l0.069 0.057c0.034 0.023 0.057 0.046 0.091 0.069 0.023 0.023 0.034 0.046 0.057 0.057 0.034 0.034 0.057 0.057 0.091 0.080 0.023 0.023 0.034 0.046 0.057 0.057 0.034 0.034 0.069 0.069 0.091 0.103 0.023 0.011 0.034 0.023 0.046 0.046 0.046 0.046 0.091 0.091 0.137 0.149 0 0 0.011 0.011 0.011 0.011 0.034 0.046 0.069 0.091 0.114 0.137 0.011 0.023 0.023 0.034 0.034 0.057 0.023 0.034 0.057 0.069 0.080 0.103 0.011 0.023 0.023 0.046 0.046 0.069 0.023 0.034 0.046 0.069 0.069 0.103 0.011 0.023 0.023 0.046 0.034 0.069 0.023 0.034 0.046 0.069 0.069 0.103 0.011 0.023 0.023 0.046 0.034 0.069 0.023 0.034 0.034 0.069 0.057 0.103 0.011 0.023 0.023 0.057 0.034 0.080 0.023 0.034 0.034 0.069 0.057 0.103 0.011 0.023 0.023 0.057 0.023 0.080 0.023 0.034 0.034 0.080 0.057 0.114 0 0.023 0.011 0.046 0.023 0.069 0.011 0.046 0.034 0.091 0.046 0.137 0.011 0.023 0.011 0.034 0.023 0.057 0.023 0.057 0.034 0.126 0.057 0.194 0 0.011 0 0.023 0 0.034 0.023 0.057 0.034 0.103 0.046 0.16 0 0.023 0.011 0.046 0.011 0.069 0.011 0.034 0.011 0.069 0.023 0.114h2.96c0.149 0 0.263-0.126 0.263-0.263v-2.949h-1.12v-1.406h1.12v-1.806c0-0.857-0.514-1.611-1.326-1.92l-2.697-1.051h-10.206v9.394zM30.034 16.194h9.246l-2.594-5.943c-0.286-0.663-0.949-1.086-1.691-1.086h-4.96v7.029zM11.783 30.583c1.634 0 2.971-1.291 2.971-2.891s-1.337-2.891-2.971-2.891c-0.046 0-0.103 0-0.149 0-1.371 0.069-2.491 1.040-2.754 2.309-0.011 0.046-0.023 0.091-0.034 0.149-0.011 0.091-0.023 0.183-0.023 0.286-0.011 0.046-0.011 0.103-0.011 0.149 0 1.6 1.337 2.891 2.971 2.891zM1.44 22.377h1.12v1.406h-1.12v3.131c0 0.046 0.034 0.080 0.069 0.080h5.92c0.011-0.046 0.011-0.080 0.023-0.114 0-0.023 0.011-0.046 0.011-0.069 0.011-0.057 0.023-0.103 0.046-0.16 0-0.011 0-0.023 0-0.034 0.023-0.069 0.046-0.126 0.057-0.194 0.011-0.023 0.023-0.046 0.023-0.057 0.011-0.046 0.034-0.091 0.046-0.137 0.011-0.023 0.023-0.046 0.034-0.069 0.011-0.034 0.023-0.080 0.046-0.114 0.011-0.023 0.023-0.057 0.034-0.080 0.011-0.034 0.023-0.069 0.046-0.103 0.011-0.023 0.023-0.057 0.034-0.080 0.023-0.034 0.034-0.069 0.057-0.103 0.011-0.023 0.023-0.046 0.046-0.069 0.011-0.034 0.034-0.069 0.057-0.103 0.011-0.023 0.023-0.046 0.046-0.069 0.011-0.034 0.034-0.069 0.057-0.103 0.023-0.023 0.034-0.046 0.046-0.069 0.023-0.034 0.057-0.069 0.080-0.103 0.011-0.023 0.023-0.034 0.046-0.057 0.034-0.046 0.069-0.091 0.103-0.126 0-0.011 0.011-0.023 0.011-0.023 0.046-0.057 0.091-0.103 0.137-0.149 0.011-0.023 0.034-0.034 0.046-0.046 0.034-0.034 0.057-0.069 0.091-0.103 0.023-0.011 0.034-0.034 0.057-0.057 0.034-0.023 0.057-0.046 0.091-0.080 0.023-0.011 0.046-0.034 0.057-0.057 0.034-0.023 0.069-0.046 0.091-0.069s0.046-0.034 0.069-0.057c0.034-0.023 0.057-0.046 0.091-0.069 0.023-0.023 0.046-0.034 0.069-0.046 0.034-0.023 0.069-0.046 0.103-0.069 0.023-0.023 0.046-0.034 0.069-0.046 0.034-0.023 0.069-0.046 0.103-0.069 0.023-0.011 0.046-0.034 0.069-0.046 0.034-0.023 0.069-0.046 0.114-0.057 0.023-0.011 0.034-0.023 0.057-0.034 0.057-0.034 0.114-0.057 0.171-0.091 0 0 0.011 0 0.011 0 0.057-0.034 0.126-0.057 0.183-0.080 0.023-0.011 0.046-0.023 0.069-0.034 0.034-0.011 0.080-0.023 0.126-0.046 0.023-0.011 0.046-0.011 0.080-0.023s0.069-0.034 0.114-0.046c0.023 0 0.057-0.011 0.080-0.023 0.046-0.011 0.080-0.023 0.114-0.034 0.034 0 0.057-0.011 0.091-0.011 0.034-0.011 0.080-0.023 0.114-0.034 0.034 0 0.057-0.011 0.091-0.011 0.034-0.011 0.080-0.023 0.114-0.023 0.034-0.011 0.057-0.011 0.091-0.011 0.046-0.011 0.080-0.011 0.126-0.023 0.034 0 0.057 0 0.080-0.011 0.057 0 0.103 0 0.149-0.011 0.023 0 0.046 0 0.069 0 0.069 0 0.149 0 0.217 0s0.149 0 0.217 0c0.023 0 0.046 0 0.069 0 0.046 0.011 0.091 0.011 0.149 0.011 0.023 0.011 0.046 0.011 0.080 0.011 0.046 0.011 0.080 0.011 0.126 0.023 0.034 0 0.057 0 0.091 0.011 0.034 0 0.080 0.011 0.114 0.023 0.034 0 0.057 0.011 0.091 0.011 0.034 0.011 0.080 0.023 0.114 0.034 0.034 0 0.057 0.011 0.091 0.011 0.034 0.011 0.080 0.023 0.114 0.034 0.023 0.011 0.057 0.023 0.080 0.023 0.046 0.011 0.080 0.034 0.126 0.046 0.023 0.011 0.046 0.011 0.069 0.023 0.046 0.023 0.091 0.034 0.137 0.046 0.011 0.011 0.034 0.023 0.057 0.034 0.057 0.023 0.126 0.046 0.183 0.080 0.011 0 0.011 0 0.011 0 0.057 0.034 0.114 0.057 0.171 0.091 0.023 0.011 0.034 0.023 0.057 0.034 0.046 0.011 0.080 0.034 0.114 0.057 0.023 0.011 0.046 0.034 0.069 0.046 0.034 0.023 0.069 0.046 0.103 0.069 0.023 0.011 0.046 0.023 0.080 0.046 0.023 0.023 0.057 0.046 0.091 0.069 0.023 0.011 0.046 0.023 0.069 0.046 0.034 0.023 0.057 0.046 0.091 0.069 0.023 0.023 0.046 0.034 0.069 0.057s0.057 0.046 0.091 0.069c0.011 0.023 0.034 0.046 0.057 0.057 0.034 0.034 0.057 0.057 0.091 0.080 0.023 0.023 0.034 0.046 0.057 0.057 0.034 0.034 0.069 0.069 0.091 0.103 0.023 0.011 0.034 0.023 0.046 0.046 0.046 0.046 0.091 0.091 0.137 0.149 0 0 0.011 0.011 0.011 0.011 0.034 0.046 0.069 0.091 0.103 0.137 0.023 0.023 0.034 0.034 0.046 0.057 0.023 0.034 0.057 0.069 0.080 0.103 0.011 0.023 0.023 0.046 0.046 0.069 0.023 0.034 0.046 0.069 0.057 0.103 0.023 0.023 0.034 0.046 0.046 0.069 0.023 0.034 0.046 0.069 0.057 0.103 0.023 0.023 0.034 0.046 0.046 0.069 0.023 0.034 0.034 0.069 0.057 0.103 0.011 0.023 0.023 0.057 0.034 0.080 0.023 0.034 0.034 0.069 0.046 0.103 0.011 0.023 0.023 0.057 0.034 0.080 0.023 0.034 0.034 0.080 0.057 0.114 0 0.023 0.011 0.046 0.023 0.069 0.011 0.046 0.034 0.091 0.046 0.137 0.011 0.023 0.011 0.034 0.023 0.057 0.011 0.057 0.034 0.126 0.057 0.194 0 0.011 0 0.023 0 0.034 0.023 0.046 0.034 0.103 0.046 0.16 0 0.023 0.011 0.046 0.011 0.069 0.011 0.034 0.011 0.069 0.023 0.114h12.446v-20.903c0-0.389 0.331-0.697 0.72-0.697h10.423c0.023 0 0.069 0 0.103-0.069 0.034-0.057 0.011-0.103 0-0.114l-2.251-3.303c-0.229-0.32-0.583-0.503-0.983-0.503h-18.811c-0.114 0-0.206 0.034-0.286 0.103l-1.189 1.166c-0.343 0.343-0.811 0.526-1.303 0.526h-12.4c-0.651 0-1.166 0.514-1.166 1.143v18.034z"></path>
<path d="M5.531 7.189h8.811c1.017 0 1.851 0.811 1.851 1.806v4.103c0 0.994-0.834 1.806-1.851 1.806h-8.811c-1.017 0-1.851-0.811-1.851-1.806v-4.103c0-0.994 0.834-1.806 1.851-1.806zM5.12 13.097c0 0.217 0.183 0.389 0.411 0.389h8.811c0.229 0 0.411-0.171 0.411-0.389v-4.103c0-0.217-0.183-0.4-0.411-0.4h-8.811c-0.229 0-0.411 0.183-0.411 0.4v4.103z"></path>
</symbol>
<symbol id="icon-petrol" viewBox="0 0 29 32">
<path d="M28.032 7.509v-0.021l-6.592-6.613-1.899 1.899 3.755 3.733c-1.664 0.64-2.859 2.24-2.859 4.16 0 0.576 0.107 1.152 0.341 1.685 0.213 0.555 0.555 1.024 0.96 1.451 0.832 0.832 1.963 1.301 3.136 1.301 0.64 0 1.237-0.149 1.792-0.384v12.821c0 0.469-0.192 0.917-0.533 1.259s-0.789 0.533-1.259 0.533c-0.469 0-0.917-0.192-1.259-0.533-0.32-0.341-0.512-0.789-0.512-1.259v-8c0-0.939-0.384-1.835-1.045-2.517-0.661-0.661-1.579-1.024-2.517-1.024h-1.771v-12.459c0-0.939-0.384-1.835-1.045-2.517-0.661-0.661-1.579-1.024-2.517-1.024h-10.667c-0.939 0-1.835 0.363-2.517 1.024-0.661 0.683-1.024 1.579-1.024 2.517v28.459h17.771v-13.333h2.667v8.875c0 1.173 0.469 2.304 1.301 3.136 0.832 0.853 1.963 1.323 3.136 1.323 0.597 0 1.173-0.128 1.707-0.341 0.533-0.235 1.024-0.555 1.429-0.981 0.427-0.405 0.747-0.896 0.981-1.429 0.213-0.533 0.341-1.109 0.341-1.707v-16.875c0-1.237-0.512-2.368-1.301-3.157zM14.208 18.667v9.771h-10.667v-12.437h10.667v2.667zM14.208 12.437h-10.667v-8.896h10.667v8.896zM24.875 12.437c-0.469 0-0.917-0.192-1.259-0.533-0.32-0.32-0.512-0.768-0.512-1.237 0-0.491 0.192-0.939 0.512-1.259 0.341-0.341 0.789-0.533 1.259-0.533s0.917 0.192 1.259 0.533c0.341 0.32 0.533 0.768 0.533 1.259 0 0.469-0.192 0.917-0.533 1.237-0.341 0.341-0.789 0.533-1.259 0.533z"></path>
</symbol>
<symbol id="icon-route" viewBox="0 0 32 32">
<path d="M6.656 4c-1.472 0-2.656 1.184-2.656 2.656s1.184 2.672 2.656 2.672c1.472 0 2.672-1.2 2.672-2.672s-1.2-2.656-2.672-2.656zM1.328 6.656c0-2.944 2.384-5.328 5.328-5.328s5.344 2.384 5.344 5.328c0 2.944-2.4 5.344-5.344 5.344s-5.328-2.4-5.328-5.344z"></path>
<path d="M25.328 22.656c-1.472 0-2.672 1.2-2.672 2.672s1.2 2.672 2.672 2.672c1.472 0 2.672-1.2 2.672-2.672s-1.2-2.672-2.672-2.672zM20 25.328c0-2.944 2.384-5.328 5.328-5.328s5.328 2.384 5.328 5.328c0 2.944-2.384 5.328-5.328 5.328s-5.328-2.384-5.328-5.328z"></path>
<path d="M13.328 6.656c0-0.736 0.592-1.328 1.328-1.328h8.4c4.128 0 5.616 5.408 1.984 7.424l-15.472 8.8c-1.152 0.656-0.784 2.448 0.688 2.448h7.072c0.736 0 1.328 0.592 1.328 1.328s-0.592 1.328-1.328 1.328h-7.072c-4.128 0-5.616-5.408-1.984-7.424l15.472-8.8c1.168-0.656 0.784-2.432-0.688-2.432h-8.4c-0.736 0-1.328-0.608-1.328-1.344z"></path>
</symbol>
<symbol id="icon-shower" viewBox="0 0 32 32">
<path stroke-linejoin="round" stroke-linecap="round" stroke-miterlimit="4" stroke-width="2" d="M5.33 5.33l3.33 3.33M18 8.66c-1.25-1.22-2.92-1.89-4.66-1.88-1.74 0-3.4 0.7-4.63 1.93s-1.93 2.89-1.93 4.63c-0.010 1.74 0.66 3.41 1.88 4.66M20 6.66l-13.34 13.34M18.66 22.66v0.020M13.33 21.33v0.010M17.33 17.33v0.010M21.33 13.33v0.010M14.66 26.66v0.020M22.66 18.66v0.020M26.66 14.66v0.020"></path>
</symbol>
<symbol id="icon-TV" viewBox="0 0 28 32">
<path stroke-linejoin="round" stroke-linecap="butt" stroke-miterlimit="4" stroke-width="1.9326" d="M5.25 26.735c-2.373 0-4.295-1.922-4.295-4.295v-10.737c0-2.384 1.922-4.295 4.295-4.295h17.179c2.384 0 4.295 1.911 4.295 4.295v10.737c0 2.373-1.911 4.295-4.295 4.295h-17.179z"></path>
<path stroke-linejoin="round" stroke-linecap="round" stroke-miterlimit="4" stroke-width="1.9326" d="M9.545 31.030h8.59"></path>
<path stroke-linejoin="round" stroke-linecap="round" stroke-miterlimit="4" stroke-width="1.9326" d="M13.84 7.408l6.442-6.442"></path>
<path stroke-linejoin="round" stroke-linecap="round" stroke-miterlimit="4" stroke-width="1.9326" d="M13.84 7.408l-6.442-6.442"></path>
</symbol>
<symbol id="icon-wind" viewBox="0 0 40 32">
<path d="M19.36 0c-1.86 0-3.68 0.64-5.14 1.8-1.44 1.18-2.44 2.8-2.82 4.62l-0.14 0.72c-0.040 0.16-0.040 0.32-0.020 0.48 0.040 0.16 0.1 0.32 0.18 0.46 0.1 0.14 0.22 0.26 0.36 0.36 0.14 0.080 0.3 0.16 0.46 0.18 0.16 0.040 0.34 0.040 0.5 0s0.32-0.1 0.46-0.2c0.14-0.080 0.24-0.2 0.34-0.34 0.080-0.14 0.14-0.3 0.18-0.46l0.14-0.72c0.28-1.34 1.060-2.54 2.18-3.36 1.12-0.8 2.5-1.18 3.88-1.040 1.4 0.14 2.68 0.76 3.62 1.78 0.92 1.020 1.44 2.34 1.46 3.7 0 1.48-0.6 2.88-1.66 3.92s-2.48 1.62-3.98 1.62h-18.12c-0.34 0-0.64 0.14-0.88 0.36-0.24 0.24-0.36 0.56-0.36 0.88s0.12 0.64 0.36 0.86c0.24 0.24 0.54 0.38 0.88 0.38h18.12c2.12-0.060 4.14-0.92 5.62-2.42s2.32-3.5 2.32-5.58c0-2.1-0.84-4.1-2.32-5.6s-3.48-2.36-5.62-2.4zM33.74 11.060c-1.66 0-3.24 0.66-4.42 1.8-1.18 1.16-1.82 2.72-1.82 4.36 0 0.32 0.12 0.64 0.36 0.88 0.24 0.22 0.54 0.36 0.88 0.36s0.64-0.14 0.88-0.36c0.24-0.24 0.38-0.56 0.38-0.88 0-0.72 0.2-1.44 0.62-2.060 0.42-0.6 1-1.080 1.68-1.36 0.7-0.26 1.44-0.34 2.18-0.2 0.72 0.14 1.38 0.5 1.92 1 0.52 0.52 0.88 1.18 1.020 1.9s0.060 1.46-0.22 2.14c-0.28 0.66-0.76 1.24-1.38 1.66-0.62 0.4-1.34 0.62-2.080 0.62h-32.5c-0.34 0-0.64 0.12-0.88 0.36-0.24 0.22-0.36 0.54-0.36 0.86 0 0.34 0.12 0.64 0.36 0.88 0.24 0.22 0.54 0.36 0.88 0.36h24.38c0.82 0 1.62 0.32 2.2 0.9s0.92 1.36 0.92 2.18c0 0.82-0.34 1.6-0.92 2.18-0.6 0.56-1.38 0.9-2.22 0.88-0.74 0-1.46-0.26-2.040-0.72-0.56-0.48-0.94-1.14-1.080-1.86v-0.080c-0.020-0.16-0.080-0.32-0.18-0.46-0.080-0.14-0.18-0.26-0.32-0.36s-0.3-0.16-0.46-0.2c-0.16-0.040-0.32-0.060-0.5-0.020-0.16 0.020-0.32 0.080-0.46 0.18-0.14 0.080-0.26 0.2-0.36 0.32-0.080 0.14-0.16 0.3-0.18 0.46-0.040 0.16-0.040 0.32-0.020 0.48l0.020 0.080c0.22 1.3 0.9 2.48 1.92 3.34 1.020 0.84 2.32 1.32 3.66 1.32 1.5 0 2.92-0.6 3.98-1.64 1.060-1.020 1.66-2.44 1.66-3.9 0-1.14-0.34-2.2-0.94-3.080h3.44c1.66 0 3.24-0.66 4.42-1.8 1.18-1.16 1.84-2.72 1.84-4.36s-0.66-3.2-1.84-4.36c-1.18-1.14-2.76-1.8-4.42-1.8z"></path>
<path d="M25.68 3.2c-0.22-0.28-0.44-0.54-0.7-0.8-1.48-1.5-3.48-2.36-5.62-2.4-0.64 0-1.28 0.060-1.88 0.22-1.2 0.28-2.3 0.82-3.26 1.58-0.62 0.5-1.14 1.080-1.58 1.72-0.52 0.76-0.9 1.58-1.14 2.48-0.020 0.14-0.060 0.28-0.1 0.42l-0.14 0.72c-0.040 0.16-0.040 0.32-0.020 0.48 0.040 0.16 0.1 0.32 0.18 0.46 0.1 0.14 0.22 0.26 0.36 0.36 0.14 0.080 0.3 0.16 0.46 0.18 0.16 0.040 0.34 0.040 0.5 0s0.32-0.1 0.46-0.2c0.14-0.080 0.24-0.2 0.34-0.34 0.080-0.14 0.14-0.3 0.18-0.46l0.14-0.72c0.060-0.32 0.16-0.62 0.28-0.9 0.38-0.98 1.040-1.82 1.9-2.46 0 0 0.020 0 0.020-0.020 0.94-0.68 2.080-1.040 3.24-1.060 0.020 0 0.040 0 0.080 0 0.1 0 0.22 0.020 0.34 0.020 0.060 0 0.14 0 0.2 0.020 1.4 0.14 2.68 0.76 3.62 1.78 0.060 0.080 0.12 0.14 0.18 0.22 0.56 0.66 0.94 1.44 1.14 2.28 0.080 0.38 0.12 0.8 0.14 1.2 0 0.48-0.080 0.96-0.2 1.4-0.14 0.54-0.36 1.060-0.66 1.54-0.22 0.34-0.5 0.68-0.8 0.98-0.28 0.28-0.56 0.52-0.88 0.72-0.48 0.3-1 0.54-1.56 0.7-0.080 0.020-0.14 0.040-0.22 0.060-0.040 0-0.1 0.020-0.14 0.020-0.38 0.080-0.78 0.12-1.18 0.12h-18.12c-0.34 0-0.64 0.14-0.88 0.36-0.24 0.24-0.36 0.56-0.36 0.88s0.12 0.64 0.36 0.86c0.24 0.24 0.54 0.38 0.88 0.38h18.12c0.14-0.020 0.28-0.020 0.42-0.020 0.080-0.020 0.18-0.020 0.26-0.040 0.020 0 0.040 0 0.040 0 0.28-0.040 0.58-0.080 0.84-0.14 1.54-0.34 2.96-1.1 4.060-2.22 0.060-0.060 0.14-0.14 0.2-0.2 0.66-0.74 1.2-1.56 1.56-2.46 0.28-0.76 0.48-1.54 0.54-2.34 0-0.2 0.020-0.4 0.020-0.58 0-0.9-0.16-1.8-0.46-2.62-0.26-0.78-0.66-1.52-1.16-2.18zM34.66 11.14c-0.3-0.060-0.6-0.080-0.92-0.080-1.66 0-3.24 0.66-4.42 1.8-0.16 0.18-0.32 0.34-0.46 0.52-0.080 0.1-0.18 0.22-0.26 0.34-0.72 1.020-1.1 2.24-1.1 3.5 0 0.2 0.040 0.4 0.14 0.58 0.060 0.1 0.12 0.2 0.22 0.3 0.16 0.16 0.38 0.26 0.6 0.32 0.080 0.020 0.18 0.040 0.28 0.040 0.34 0 0.64-0.14 0.88-0.36 0.24-0.24 0.38-0.56 0.38-0.88 0-0.72 0.2-1.44 0.62-2.060 0.14-0.2 0.32-0.4 0.5-0.58 0.34-0.32 0.74-0.58 1.18-0.78 0.54-0.2 1.1-0.3 1.66-0.26 0.18 0 0.34 0.020 0.52 0.060 0.6 0.12 1.16 0.38 1.64 0.76 0.1 0.080 0.18 0.16 0.28 0.24 0.52 0.52 0.88 1.18 1.020 1.9 0.040 0.24 0.060 0.48 0.080 0.72v0 0.020c-0.020 0.48-0.1 0.94-0.3 1.4 0 0.020-0.020 0.040-0.020 0.060-0.12 0.28-0.28 0.54-0.46 0.78-0.26 0.3-0.56 0.58-0.9 0.82-0.56 0.36-1.22 0.58-1.9 0.6-0.060 0.020-0.12 0.020-0.18 0.020h-32.5c-0.34 0-0.64 0.12-0.88 0.36-0.24 0.22-0.36 0.54-0.36 0.86 0 0.34 0.12 0.64 0.36 0.88 0.24 0.22 0.54 0.36 0.88 0.36h24.38c0.68 0 1.32 0.22 1.86 0.6 0.12 0.1 0.24 0.2 0.34 0.3 0.44 0.42 0.72 0.96 0.84 1.54 0.020 0.060 0.040 0.12 0.040 0.18 0.020 0.16 0.040 0.3 0.040 0.46 0 0.72-0.26 1.42-0.74 1.96-0.060 0.080-0.12 0.14-0.18 0.22-0.6 0.56-1.38 0.9-2.22 0.88-0.74 0-1.46-0.26-2.040-0.72-0.56-0.48-0.94-1.14-1.080-1.86v-0.080c-0.020-0.14-0.080-0.28-0.14-0.4 0-0.020-0.020-0.040-0.040-0.060-0.080-0.14-0.18-0.26-0.32-0.36s-0.28-0.16-0.44-0.2c0 0 0 0-0.020 0 0 0 0 0 0 0-0.080-0.020-0.16-0.040-0.24-0.040s-0.16 0-0.26 0.020c-0.12 0.020-0.24 0.060-0.34 0.12-0.040 0-0.080 0.020-0.12 0.060-0.14 0.080-0.26 0.2-0.36 0.32v0c-0.080 0.14-0.16 0.3-0.18 0.46-0.040 0.16-0.040 0.32-0.020 0.48l0.020 0.080c0.22 1.3 0.9 2.48 1.92 3.34 0.1 0.080 0.22 0.16 0.32 0.24 0.96 0.7 2.14 1.080 3.34 1.080 1.22 0 2.38-0.4 3.34-1.080 0.080-0.060 0.14-0.12 0.22-0.18 0.14-0.12 0.3-0.24 0.42-0.38 0.28-0.26 0.5-0.54 0.72-0.84 0.26-0.4 0.48-0.82 0.64-1.28 0.2-0.58 0.3-1.18 0.3-1.78 0-0.28-0.020-0.54-0.060-0.8 0-0.080-0.020-0.18-0.040-0.26-0.14-0.74-0.44-1.42-0.84-2.020h3.44c1.54 0 3-0.56 4.14-1.56 0.1-0.080 0.2-0.16 0.28-0.24 0.62-0.62 1.1-1.34 1.4-2.14 0.28-0.7 0.44-1.44 0.44-2.22 0-1.64-0.66-3.2-1.84-4.36-0.38-0.38-0.82-0.7-1.3-0.96-0.54-0.32-1.12-0.54-1.74-0.68-0.14-0.040-0.3-0.060-0.46-0.080z"></path>
</symbol>
<symbol id="icon-zigzag" viewBox="0 0 30 32">
<path stroke-linejoin="round" stroke-linecap="round" stroke-miterlimit="4" stroke-width="2.9091" d="M24.068 30.545h1.629c0.853 0 1.668-0.349 2.269-0.95 0.621-0.621 0.95-1.435 0.95-2.288s-0.33-1.687-0.95-2.288c-0.601-0.601-1.416-0.95-2.269-0.95h-1.629v6.478zM24.068 14.371h2.424c0.64 0 1.261-0.252 1.726-0.698 0.446-0.465 0.698-1.086 0.698-1.726s-0.252-1.261-0.698-1.707c-0.465-0.465-1.086-0.718-1.726-0.718h-2.424v8.087M2.385 6.962c0.621 0.601 1.435 0.95 2.288 0.95s1.687-0.349 2.288-0.95c0.601-0.601 0.95-1.435 0.95-2.288s-0.349-1.668-0.95-2.288c-0.601-0.601-1.435-0.931-2.288-0.931s-1.668 0.33-2.288 0.931c-0.601 0.621-0.931 1.435-0.931 2.288s0.33 1.687 0.931 2.288z"></path>
<path stroke-linejoin="round" stroke-linecap="round" stroke-miterlimit="4" stroke-width="2.9091" d="M4.674 7.913v4.848c0 0.427 0.175 0.834 0.485 1.144 0.291 0.291 0.698 0.465 1.144 0.465h11.307M11.152 14.371v11.326c0 0.427 0.155 0.834 0.465 1.125 0.31 0.31 0.718 0.485 1.144 0.485h4.848"></path>
</symbol>
</defs>
</svg>
